2015026_C5_03_grf
version=1
nRows=21
nColumns=19
inDegrees=no
endheader
time	ground_force_1_vx	ground_force_1_vy	ground_force_1_vz	ground_force_1_px	ground_force_1_py	ground_force_1_pz	ground_force_1_mx	ground_force_1_my	ground_force_1_mz	ground_force_2_vx	ground_force_2_vy	ground_force_2_vz	ground_force_2_px	ground_force_2_py	ground_force_2_pz	ground_force_2_mx	ground_force_2_my	ground_force_2_mz
      0.34000000	      0.00000000	      0.00000000	      0.00000000	      0.00000000	      0.00000000	      0.00000000	      0.00000000	      0.00000000	      0.00000000	     -0.15474233	    327.91903615	    -13.65002878	     -0.83406646	      0.00000000	      0.25082591	      0.00000000	      0.81143857	      0.00000000
      0.34100000	      0.00000000	      0.00000000	      0.00000000	      0.00000000	      0.00000000	      0.00000000	      0.00000000	      0.00000000	      0.00000000	      0.17493305	    331.33095503	    -13.83606177	     -0.83373756	      0.00000000	      0.25079662	      0.00000000	      0.80145210	      0.00000000
      0.34200000	      0.00000000	      0.00000000	      0.00000000	      0.00000000	      0.00000000	      0.00000000	      0.00000000	      0.00000000	      0.00000000	      0.51104452	    334.80775356	    -14.01676387	     -0.83341878	      0.00000000	      0.25076278	      0.00000000	      0.79194030	      0.00000000
      0.34300000	      0.00000000	      0.00000000	      0.00000000	      0.00000000	      0.00000000	      0.00000000	      0.00000000	      0.00000000	      0.00000000	      0.85482007	    338.36659789	    -14.19041567	     -0.83311221	      0.00000000	      0.25072320	     -0.00000000	      0.78310468	     -0.00000000
      0.34400000	      0.00000000	      0.00000000	      0.00000000	      0.00000000	      0.00000000	      0.00000000	      0.00000000	      0.00000000	      0.00000000	      1.20439334	    341.99172258	    -14.35814537	     -0.83281503	      0.00000000	      0.25067900	      0.00000000	      0.77487379	      0.00000000
      0.34500000	      0.00000000	      0.00000000	      0.00000000	      0.00000000	      0.00000000	      0.00000000	      0.00000000	      0.00000000	      0.00000000	      1.56075961	    345.70051730	    -14.51815926	     -0.83252912	      0.00000000	      0.25062903	      0.00000000	      0.76747389	     -0.00000000
      0.34600000	      0.00000000	      0.00000000	      0.00000000	      0.00000000	      0.00000000	      0.00000000	      0.00000000	      0.00000000	      0.00000000	      1.92217459	    349.47681427	    -14.67178166	     -0.83225184	      0.00000000	      0.25057445	      0.00000000	      0.76079585	      0.00000000
      0.34700000	      0.00000000	      0.00000000	      0.00000000	      0.00000000	      0.00000000	      0.00000000	      0.00000000	      0.00000000	      0.00000000	      2.28939182	    353.33822668	    -14.81718533	     -0.83198485	      0.00000000	      0.25051416	      0.00000000	      0.75508741	      0.00000000
      0.34800000	      0.00000000	      0.00000000	      0.00000000	      0.00000000	      0.00000000	      0.00000000	      0.00000000	      0.00000000	      0.00000000	      2.66082771	    357.26821423	    -14.95586224	     -0.83172572	      0.00000000	      0.25044938	     -0.00000000	      0.75020574	     -0.00000000
      0.34900000	      0.00000000	      0.00000000	      0.00000000	      0.00000000	      0.00000000	      0.00000000	      0.00000000	      0.00000000	      0.00000000	      3.03698296	    361.28440499	    -15.08597955	     -0.83147595	      0.00000000	      0.25037909	      0.00000000	      0.74641410	      0.00000000
      0.35000000	      0.00000000	      0.00000000	      0.00000000	      0.00000000	      0.00000000	      0.00000000	      0.00000000	      0.00000000	      0.00000000	      3.41645535	    365.36994576	    -15.20915665	     -0.83123328	      0.00000000	      0.25030453	     -0.00000000	      0.74353331	      0.00000000
      0.35100000	      0.00000000	      0.00000000	      0.00000000	      0.00000000	      0.00000000	      0.00000000	      0.00000000	      0.00000000	      0.00000000	      3.79948411	    369.54252422	    -15.32358527	     -0.83099901	      0.00000000	      0.25022479	      0.00000000	      0.74183265	      0.00000000
      0.35200000	      0.00000000	      0.00000000	      0.00000000	      0.00000000	      0.00000000	      0.00000000	      0.00000000	      0.00000000	      0.00000000	      4.18487843	    373.78486991	    -15.43098539	     -0.83077108	      0.00000000	      0.25014109	      0.00000000	      0.74110484	      0.00000000
      0.35300000	      0.00000000	      0.00000000	      0.00000000	      0.00000000	      0.00000000	      0.00000000	      0.00000000	      0.00000000	      0.00000000	      4.57262807	    378.11444700	    -15.52960910	     -0.83055058	      0.00000000	      0.25005264	     -0.00000000	      0.74162290	      0.00000000
      0.35400000	      0.00000000	      0.00000000	      0.00000000	      0.00000000	      0.00000000	      0.00000000	      0.00000000	      0.00000000	      0.00000000	      4.96178633	    382.51373172	    -15.62124565	     -0.83033565	      0.00000000	      0.24996060	      0.00000000	      0.74315628	      0.00000000
      0.35500000	      0.00000000	      0.00000000	      0.00000000	      0.00000000	      0.00000000	      0.00000000	      0.00000000	      0.00000000	      0.00000000	      5.35213016	    386.99980080	    -15.70422817	     -0.83012717	      0.00000000	      0.24986433	     -0.00000000	      0.74597356	     -0.00000000
      0.35600000	      0.00000000	      0.00000000	      0.00000000	      0.00000000	      0.00000000	      0.00000000	      0.00000000	      0.00000000	      0.00000000	      5.74297644	    391.55483246	    -15.78037553	     -0.82992350	      0.00000000	      0.24976488	      0.00000000	      0.74982394	      0.00000000
      0.35700000	      0.00000000	      0.00000000	      0.00000000	      0.00000000	      0.00000000	      0.00000000	      0.00000000	      0.00000000	      0.00000000	      6.13391888	    396.19530737	    -15.84813986	     -0.82972535	      0.00000000	      0.24966175	     -0.00000000	      0.75496803	      0.00000000
      0.35800000	      0.00000000	      0.00000000	      0.00000000	      0.00000000	      0.00000000	      0.00000000	      0.00000000	      0.00000000	      0.00000000	      6.52453257	    400.90334415	    -15.90936184	     -0.82953127	      0.00000000	      0.24955588	      0.00000000	      0.76114610	      0.00000000
      0.35900000	      0.00000000	      0.00000000	      0.00000000	      0.00000000	      0.00000000	      0.00000000	      0.00000000	      0.00000000	      0.00000000	      6.91426662	    405.69457412	    -15.96266795	     -0.82934185	      0.00000000	      0.24944686	      0.00000000	      0.76861064	      0.00000000
      0.36000000	      0.00000000	      0.00000000	      0.00000000	      0.00000000	      0.00000000	      0.00000000	      0.00000000	      0.00000000	      0.00000000	      7.30295992	    410.55127978	    -16.00987986	     -0.82915584	      0.00000000	      0.24933552	      0.00000000	      0.77709459	      0.00000000
